<?xml version="1.0" encoding="utf-8"?><svg xmlns="http://www.w3.org/2000/svg" xmlns:xlink="http://www.w3.org/1999/xlink"><symbol id="Jaiko-16" viewBox="0 0 504.5 108.7" xmlns="http://www.w3.org/2000/svg"><style>.ast0{fill:none;stroke:#ae9100;stroke-width:27;stroke-miterlimit:10}</style><path class="ast0" d="M491 0c0 52.6-106.9 95.2-238.7 95.2S13.5 52.6 13.5 0"/></symbol><symbol id="korova_bolshaya-22" viewBox="0 0 274.1 79.1" xmlns="http://www.w3.org/2000/svg"><style>.bst4{fill:none;stroke:#ae9100;stroke-width:22;stroke-miterlimit:10}</style><path class="bst4" d="M263.1 0c0 37.6-56.4 68.1-126.1 68.1S11 37.6 11 0"/></symbol><symbol id="korova_malaya-21" viewBox="0 0 171.1 61.4" xmlns="http://www.w3.org/2000/svg"><style>.cst5{fill:none;stroke:#ae9100;stroke-miterlimit:10;stroke-width:21}</style><path class="cst5" d="M160.6 0c0 28.1-33.6 50.9-75.1 50.9s-75-22.8-75-50.9"/></symbol><symbol id="moloko_myaso-17" viewBox="0 0 264.3 97.8" xmlns="http://www.w3.org/2000/svg"><style>.dst0{fill:none;stroke:#ae9100;stroke-width:27;stroke-miterlimit:10}</style><path class="dst0" d="M250.8 0c0 46.5-53.1 84.3-118.7 84.3S13.5 46.5 13.5 0"/></symbol><symbol id="myaso-18" viewBox="0 0 601.5 129.9" xmlns="http://www.w3.org/2000/svg"><style>.est9{fill:none;stroke:#ae9100;stroke-miterlimit:10;stroke-width:25}</style><path class="est9" d="M585 43c0 62.6-127.3 70.4-284.2 70.4S16.5 105.6 16.5 43"/></symbol><symbol id="myaso_2-18" viewBox="0 0 593.5 82.9" xmlns="http://www.w3.org/2000/svg"><style>.fst9{fill:none;stroke:#ae9100;stroke-miterlimit:10;stroke-width:25}</style><path class="fst9" d="M581 0c0 62.6-127.3 70.4-284.2 70.4S12.5 62.6 12.5 0"/></symbol><symbol id="myaso_3-23" viewBox="0 0 468 106.9" xmlns="http://www.w3.org/2000/svg"><style>.gst3{fill:#ae9100}</style><path class="gst3" d="M422 0c-49.4 45.8-115.5 73.9-188 73.9S95.4 45.8 46 0H0c4.8 5.5 9.8 11 15.1 16.2 58.5 58.5 136.2 90.7 218.9 90.7s160.4-32.2 218.9-90.7C458.2 11 463.2 5.5 468 0h-46z"/></symbol><symbol id="myaso_4-08" viewBox="0 0 764 100" xmlns="http://www.w3.org/2000/svg"><style>.hst3{fill:#ae9100}</style><path class="hst3" d="M688.5 0c-80.6 42.1-188.4 67.9-306.7 67.9S155.7 42.1 75.1 0H0c7.9 5.1 16.1 10.1 24.6 14.9C120 68.6 246.9 98.2 381.8 98.2S643.6 68.6 739 14.9c8.6-4.8 16.8-9.8 24.6-14.9h-75.1z"/></symbol><symbol id="ptica-18" viewBox="0 0 601.5 129.9" xmlns="http://www.w3.org/2000/svg"><style>.ist8{fill:none;stroke:#ae9100;stroke-width:33;stroke-miterlimit:10}</style><path class="ist8" d="M585 0c0 62.6-127.3 113.4-284.2 113.4S16.5 62.6 16.5 0"/></symbol><symbol id="svinya_bolshaya-19" viewBox="0 0 126.8 69.1" xmlns="http://www.w3.org/2000/svg"><style>.jst5{fill:none;stroke:#ae9100;stroke-miterlimit:10;stroke-width:21}</style><path class="jst5" d="M116.3 0c0 32.4-23.7 58.6-52.9 58.6S10.5 32.4 10.5 0"/></symbol><symbol id="svinya_malaya-20" viewBox="0 0 108.5 56.9" xmlns="http://www.w3.org/2000/svg"><style>.kst5{fill:none;stroke:#ae9100;stroke-miterlimit:10;stroke-width:21}</style><path class="kst5" d="M98 0c0 25.6-19.6 46.4-43.8 46.4S10.5 25.6 10.5 0"/></symbol></svg>